<svg xmlns="http://www.w3.org/2000/svg" viewBox="0 0 1720 910" width="1720" height="910" font-family="Helvetica, Arial, sans-serif">
<defs><marker id="arr" viewBox="0 0 10 10" refX="9" refY="5" markerWidth="7" markerHeight="7" orient="auto-start-reverse"><path d="M0,0 L10,5 L0,10 z" fill="#c0392b"/></marker></defs>
<rect width="1720" height="910" fill="white"/>
<text x="20.0" y="34.0" font-size="22" text-anchor="start" font-weight="bold" fill="#222">Roamyboard key modules: parts of the joint</text>
<text x="20.0" y="56.0" font-size="13" text-anchor="start" font-weight="normal" fill="#555">Drawn from the r5 model numbers (case/roamy-v4). Module frame: x across the column from the socket face, y along it from the SW1 end face, z up from the board's back.</text>
<text x="20.0" y="96.0" font-size="16" text-anchor="start" font-weight="bold" fill="#222">1  Top view of a pair (looking down at the keys)</text>
<polygon points="190.0,718.0 294.2,718.0 294.2,150.0 190.0,150.0" fill="#cfe0f5" fill-opacity="1" stroke="#3b6ea8" stroke-width="1.6"/>
<polygon points="190.0,718.0 294.2,718.0 294.2,685.0 190.0,685.0" fill="#3b6ea8" fill-opacity="0.18" stroke="#3b6ea8" stroke-width="0.8"/>
<polygon points="190.0,183.0 294.2,183.0 294.2,150.0 190.0,150.0" fill="#3b6ea8" fill-opacity="0.18" stroke="#3b6ea8" stroke-width="0.8"/>
<polygon points="196.5,281.9 273.0,281.9 273.0,205.4 196.5,205.4" fill="white" fill-opacity="0.6" stroke="#3b6ea8" stroke-width="0.8"/>
<polygon points="200.5,277.9 269.0,277.9 269.0,209.4 200.5,209.4" fill="#f7f7f7" fill-opacity="1" stroke="#999" stroke-width="0.6"/>
<polygon points="196.5,376.9 273.0,376.9 273.0,300.4 196.5,300.4" fill="white" fill-opacity="0.6" stroke="#3b6ea8" stroke-width="0.8"/>
<polygon points="200.5,372.9 269.0,372.9 269.0,304.4 200.5,304.4" fill="#f7f7f7" fill-opacity="1" stroke="#999" stroke-width="0.6"/>
<polygon points="196.5,471.6 273.0,471.6 273.0,395.0 196.5,395.0" fill="white" fill-opacity="0.6" stroke="#3b6ea8" stroke-width="0.8"/>
<polygon points="200.5,467.6 269.0,467.6 269.0,399.0 200.5,399.0" fill="#f7f7f7" fill-opacity="1" stroke="#999" stroke-width="0.6"/>
<polygon points="196.5,566.9 273.0,566.9 273.0,490.4 196.5,490.4" fill="white" fill-opacity="0.6" stroke="#3b6ea8" stroke-width="0.8"/>
<polygon points="200.5,562.9 269.0,562.9 269.0,494.4 200.5,494.4" fill="#f7f7f7" fill-opacity="1" stroke="#999" stroke-width="0.6"/>
<polygon points="196.5,662.2 273.0,662.2 273.0,585.8 196.5,585.8" fill="white" fill-opacity="0.6" stroke="#3b6ea8" stroke-width="0.8"/>
<polygon points="200.5,658.2 269.0,658.2 269.0,589.8 200.5,589.8" fill="#f7f7f7" fill-opacity="1" stroke="#999" stroke-width="0.6"/>
<polygon points="256.0,293.5 293.0,293.5 293.0,255.5 256.0,255.5" fill="none" fill-opacity="1" stroke="#666" stroke-width="1" stroke-dasharray="3,2"/>
<polygon points="190.0,294.0 232.5,294.0 232.5,255.0 190.0,255.0" fill="none" fill-opacity="1" stroke="#666" stroke-width="1" stroke-dasharray="3,2"/>
<polygon points="256.0,388.5 293.0,388.5 293.0,350.5 256.0,350.5" fill="none" fill-opacity="1" stroke="#666" stroke-width="1" stroke-dasharray="3,2"/>
<polygon points="190.0,389.0 232.5,389.0 232.5,350.0 190.0,350.0" fill="none" fill-opacity="1" stroke="#666" stroke-width="1" stroke-dasharray="3,2"/>
<polygon points="256.0,578.5 293.0,578.5 293.0,540.5 256.0,540.5" fill="none" fill-opacity="1" stroke="#666" stroke-width="1" stroke-dasharray="3,2"/>
<polygon points="190.0,579.0 232.5,579.0 232.5,540.0 190.0,540.0" fill="none" fill-opacity="1" stroke="#666" stroke-width="1" stroke-dasharray="3,2"/>
<polygon points="281.8,712.5 350.8,712.5 350.8,701.5 281.8,701.5" fill="#6f9fd8" fill-opacity="0.5" stroke="#3b6ea8" stroke-width="1" stroke-dasharray="3,2"/>
<polygon points="281.8,166.5 350.8,166.5 350.8,155.5 281.8,155.5" fill="#6f9fd8" fill-opacity="0.5" stroke="#3b6ea8" stroke-width="1" stroke-dasharray="3,2"/>
<polygon points="193.0,718.0 244.0,718.0 244.0,713.0 193.0,713.0" fill="#f3ac4c" fill-opacity="0.55" stroke="#a85f00" stroke-width="0.9"/>
<polygon points="193.0,155.0 244.0,155.0 244.0,150.0 193.0,150.0" fill="#f3ac4c" fill-opacity="0.55" stroke="#a85f00" stroke-width="0.9"/>
<polygon points="294.2,718.0 398.5,718.0 398.5,150.0 294.2,150.0" fill="#d6eed3" fill-opacity="1" stroke="#3c8a45" stroke-width="1.6"/>
<polygon points="294.2,718.0 398.5,718.0 398.5,685.0 294.2,685.0" fill="#3c8a45" fill-opacity="0.18" stroke="#3c8a45" stroke-width="0.8"/>
<polygon points="294.2,183.0 398.5,183.0 398.5,150.0 294.2,150.0" fill="#3c8a45" fill-opacity="0.18" stroke="#3c8a45" stroke-width="0.8"/>
<polygon points="300.8,281.9 377.2,281.9 377.2,205.4 300.8,205.4" fill="white" fill-opacity="0.6" stroke="#3c8a45" stroke-width="0.8"/>
<polygon points="304.8,277.9 373.2,277.9 373.2,209.4 304.8,209.4" fill="#f7f7f7" fill-opacity="1" stroke="#999" stroke-width="0.6"/>
<polygon points="300.8,376.9 377.2,376.9 377.2,300.4 300.8,300.4" fill="white" fill-opacity="0.6" stroke="#3c8a45" stroke-width="0.8"/>
<polygon points="304.8,372.9 373.2,372.9 373.2,304.4 304.8,304.4" fill="#f7f7f7" fill-opacity="1" stroke="#999" stroke-width="0.6"/>
<polygon points="300.8,471.6 377.2,471.6 377.2,395.0 300.8,395.0" fill="white" fill-opacity="0.6" stroke="#3c8a45" stroke-width="0.8"/>
<polygon points="304.8,467.6 373.2,467.6 373.2,399.0 304.8,399.0" fill="#f7f7f7" fill-opacity="1" stroke="#999" stroke-width="0.6"/>
<polygon points="300.8,566.9 377.2,566.9 377.2,490.4 300.8,490.4" fill="white" fill-opacity="0.6" stroke="#3c8a45" stroke-width="0.8"/>
<polygon points="304.8,562.9 373.2,562.9 373.2,494.4 304.8,494.4" fill="#f7f7f7" fill-opacity="1" stroke="#999" stroke-width="0.6"/>
<polygon points="300.8,662.2 377.2,662.2 377.2,585.8 300.8,585.8" fill="white" fill-opacity="0.6" stroke="#3c8a45" stroke-width="0.8"/>
<polygon points="304.8,658.2 373.2,658.2 373.2,589.8 304.8,589.8" fill="#f7f7f7" fill-opacity="1" stroke="#999" stroke-width="0.6"/>
<polygon points="360.2,293.5 397.2,293.5 397.2,255.5 360.2,255.5" fill="none" fill-opacity="1" stroke="#666" stroke-width="1" stroke-dasharray="3,2"/>
<polygon points="294.2,294.0 336.8,294.0 336.8,255.0 294.2,255.0" fill="none" fill-opacity="1" stroke="#666" stroke-width="1" stroke-dasharray="3,2"/>
<polygon points="360.2,388.5 397.2,388.5 397.2,350.5 360.2,350.5" fill="none" fill-opacity="1" stroke="#666" stroke-width="1" stroke-dasharray="3,2"/>
<polygon points="294.2,389.0 336.8,389.0 336.8,350.0 294.2,350.0" fill="none" fill-opacity="1" stroke="#666" stroke-width="1" stroke-dasharray="3,2"/>
<polygon points="360.2,578.5 397.2,578.5 397.2,540.5 360.2,540.5" fill="none" fill-opacity="1" stroke="#666" stroke-width="1" stroke-dasharray="3,2"/>
<polygon points="294.2,579.0 336.8,579.0 336.8,540.0 294.2,540.0" fill="none" fill-opacity="1" stroke="#666" stroke-width="1" stroke-dasharray="3,2"/>
<polygon points="386.0,712.5 455.0,712.5 455.0,701.5 386.0,701.5" fill="#6f9fd8" fill-opacity="0.25" stroke="#3c8a45" stroke-width="1" stroke-dasharray="3,2"/>
<polygon points="386.0,166.5 455.0,166.5 455.0,155.5 386.0,155.5" fill="#6f9fd8" fill-opacity="0.25" stroke="#3c8a45" stroke-width="1" stroke-dasharray="3,2"/>
<polygon points="297.2,718.0 348.2,718.0 348.2,713.0 297.2,713.0" fill="#f3ac4c" fill-opacity="1" stroke="#a85f00" stroke-width="0.9"/>
<polygon points="297.2,155.0 348.2,155.0 348.2,150.0 297.2,150.0" fill="#f3ac4c" fill-opacity="1" stroke="#a85f00" stroke-width="0.9"/>
<line x1="294.2" y1="733.0" x2="294.2" y2="135.0" stroke="#c0392b" stroke-width="1.6" stroke-dasharray="6,3"/>
<text x="242.1" y="132.5" font-size="15" text-anchor="middle" font-weight="bold" fill="#222">module A</text>
<text x="346.4" y="132.5" font-size="15" text-anchor="middle" font-weight="bold" fill="#222">module B</text>
<text x="346.4" y="148.5" font-size="12" text-anchor="middle" font-weight="normal" fill="#222" font-style="italic">A's neighbour</text>
<text x="30.0" y="169.0" font-size="13" text-anchor="start" font-weight="bold" fill="#222">SW5 end</text>
<line x1="34.0" y1="165.0" x2="188.5" y2="165.0" stroke="#555" stroke-width="0.9"/>
<circle cx="188.5" cy="165.0" r="2.2" fill="#555"/>
<text x="30.0" y="210.0" font-size="13" text-anchor="start" font-weight="bold" fill="#222">end wall</text>
<text x="30.0" y="225.6" font-size="13" text-anchor="start" font-weight="bold" fill="#222">(6.6 mm, both ends)</text>
<line x1="34.0" y1="206.0" x2="210.0" y2="172.5" stroke="#555" stroke-width="0.9"/>
<circle cx="210.0" cy="172.5" r="2.2" fill="#555"/>
<text x="30.0" y="599.0" font-size="13" text-anchor="start" font-weight="bold" fill="#222">switch pocket</text>
<line x1="34.0" y1="595.0" x2="199.0" y2="609.0" stroke="#555" stroke-width="0.9"/>
<circle cx="199.0" cy="609.0" r="2.2" fill="#555"/>
<text x="30.0" y="528.7" font-size="13" text-anchor="start" font-weight="bold" fill="#222">socket side</text>
<line x1="34.0" y1="524.7" x2="190.0" y2="528.7" stroke="#555" stroke-width="0.9"/>
<circle cx="190.0" cy="528.7" r="2.2" fill="#555"/>
<text x="30.0" y="409.5" font-size="13" text-anchor="start" font-weight="bold" fill="#222">socket (under the plate)</text>
<line x1="34.0" y1="405.5" x2="210.0" y2="389.0" stroke="#555" stroke-width="0.9"/>
<circle cx="210.0" cy="389.0" r="2.2" fill="#555"/>
<text x="30.0" y="658.0" font-size="13" text-anchor="start" font-weight="bold" fill="#222">A's own flap, for the</text>
<text x="30.0" y="673.6" font-size="13" text-anchor="start" font-weight="bold" fill="#222">module on its socket side</text>
<line x1="34.0" y1="654.0" x2="205.0" y2="715.5" stroke="#555" stroke-width="0.9"/>
<circle cx="205.0" cy="715.5" r="2.2" fill="#555"/>
<text x="30.0" y="723.0" font-size="13" text-anchor="start" font-weight="bold" fill="#222">SW1 end</text>
<line x1="34.0" y1="719.0" x2="188.5" y2="703.0" stroke="#555" stroke-width="0.9"/>
<circle cx="188.5" cy="703.0" r="2.2" fill="#555"/>
<text x="60.0" y="758.0" font-size="13" text-anchor="start" font-weight="bold" fill="#222">end face</text>
<line x1="64.0" y1="754.0" x2="265.0" y2="718.0" stroke="#555" stroke-width="0.9"/>
<circle cx="265.0" cy="718.0" r="2.2" fill="#555"/>
<text x="463.5" y="388.3" font-size="13" text-anchor="start" font-weight="bold" fill="#222">seam: A's header face</text>
<text x="463.5" y="403.9" font-size="13" text-anchor="start" font-weight="bold" fill="#222">meets B's socket face</text>
<line x1="467.5" y1="384.3" x2="294.2" y2="413.3" stroke="#555" stroke-width="0.9"/>
<circle cx="294.2" cy="413.3" r="2.2" fill="#555"/>
<text x="463.5" y="254.5" font-size="13" text-anchor="start" font-weight="bold" fill="#222">header (under the plate)</text>
<line x1="467.5" y1="250.5" x2="280.0" y2="274.5" stroke="#555" stroke-width="0.9"/>
<circle cx="280.0" cy="274.5" r="2.2" fill="#555"/>
<text x="463.5" y="529.5" font-size="13" text-anchor="start" font-weight="bold" fill="#222">connector row</text>
<text x="463.5" y="545.1" font-size="13" text-anchor="start" font-weight="bold" fill="#222">(3 per seam)</text>
<line x1="467.5" y1="525.5" x2="324.2" y2="549.5" stroke="#555" stroke-width="0.9"/>
<circle cx="324.2" cy="549.5" r="2.2" fill="#555"/>
<text x="463.5" y="588.7" font-size="13" text-anchor="start" font-weight="bold" fill="#222">header side (of B)</text>
<line x1="467.5" y1="584.7" x2="398.5" y2="548.7" stroke="#555" stroke-width="0.9"/>
<circle cx="398.5" cy="548.7" r="2.2" fill="#555"/>
<text x="463.5" y="155.0" font-size="13" text-anchor="start" font-weight="bold" fill="#222">guide pin (A's), inside</text>
<text x="463.5" y="170.6" font-size="13" text-anchor="start" font-weight="bold" fill="#222">B's end wall</text>
<line x1="467.5" y1="151.0" x2="324.2" y2="161.0" stroke="#555" stroke-width="0.9"/>
<circle cx="324.2" cy="161.0" r="2.2" fill="#555"/>
<text x="463.5" y="195.0" font-size="13" text-anchor="start" font-weight="bold" fill="#222">flap (B's)</text>
<line x1="467.5" y1="191.0" x2="334.2" y2="152.5" stroke="#555" stroke-width="0.9"/>
<circle cx="334.2" cy="152.5" r="2.2" fill="#555"/>
<text x="463.5" y="688.0" font-size="13" text-anchor="start" font-weight="bold" fill="#222">flap (B's)</text>
<line x1="467.5" y1="684.0" x2="334.2" y2="715.5" stroke="#555" stroke-width="0.9"/>
<circle cx="334.2" cy="715.5" r="2.2" fill="#555"/>
<text x="463.5" y="728.0" font-size="13" text-anchor="start" font-weight="bold" fill="#222">guide pin (A's)</text>
<line x1="467.5" y1="724.0" x2="314.2" y2="707.0" stroke="#555" stroke-width="0.9"/>
<circle cx="314.2" cy="707.0" r="2.2" fill="#555"/>
<text x="463.5" y="750.5" font-size="11" text-anchor="start" font-weight="normal" fill="#666" font-style="italic">B's guide pins (faint) go into</text>
<text x="463.5" y="763.7" font-size="11" text-anchor="start" font-weight="normal" fill="#666" font-style="italic">the module on its header side.</text>
<rect x="254.2" y="678.0" width="110.0" height="47.5" fill="none" stroke="#c0392b" stroke-width="1.4" stroke-dasharray="4,3"/>
<text x="256.2" y="739.5" font-size="12" text-anchor="start" font-weight="bold" fill="#c0392b">detail 2</text>
<line x1="60.0" y1="830.0" x2="100.0" y2="830.0" stroke="#333" stroke-width="1.5" marker-end="url(#arr)"/>
<line x1="60.0" y1="830.0" x2="60.0" y2="790.0" stroke="#333" stroke-width="1.5" marker-end="url(#arr)"/>
<text x="104.0" y="834.0" font-size="13" text-anchor="start" font-weight="bold" fill="#222">x</text>
<text x="56.0" y="784.0" font-size="13" text-anchor="start" font-weight="bold" fill="#222">y</text>
<text x="70.0" y="852.0" font-size="11" text-anchor="start" font-weight="normal" fill="#666">z out of the page (up)</text>
<text x="660.0" y="96.0" font-size="16" text-anchor="start" font-weight="bold" fill="#222">2  Detail: SW1 end of the seam, cut through the guide pin (top view, B's frame)</text>
<polygon points="850.0,366.0 1066.0,366.0 1066.0,150.0 1017.4,150.0 1017.4,187.8 850.0,187.8" fill="#cfe0f5" fill-opacity="1" stroke="#3b6ea8" stroke-width="1.5"/>
<polygon points="1444.0,366.0 1066.0,366.0 1066.0,150.0 1114.6,150.0 1114.6,187.8 1444.0,187.8" fill="#d6eed3" fill-opacity="1" stroke="#3c8a45" stroke-width="1.5"/>
<text x="933.7" y="168.9" font-size="12" text-anchor="middle" font-weight="normal" fill="#666" font-style="italic">A's pocket</text>
<text x="1336.0" y="168.9" font-size="12" text-anchor="middle" font-weight="normal" fill="#666" font-style="italic">B's pocket</text>
<polygon points="1066.0,339.0 1379.2,339.0 1379.2,274.2 1066.0,274.2" fill="white" fill-opacity="1" stroke="#3c8a45" stroke-width="1"/>
<polygon points="1357.6,366.5 1373.8,366.5 1373.8,339.0 1357.6,339.0" fill="white" fill-opacity="1" stroke="none" stroke-width="0"/>
<line x1="1357.6" y1="366.0" x2="1357.6" y2="339.0" stroke="#3c8a45" stroke-width="1.2"/>
<line x1="1373.8" y1="366.0" x2="1373.8" y2="339.0" stroke="#3c8a45" stroke-width="1.2"/>
<polygon points="1082.2,366.0 1357.6,366.0 1357.6,339.0 1341.4,339.0 1322.5,320.1 1306.3,320.1 1287.4,339.0 1082.2,339.0" fill="#f3ac4c" fill-opacity="1" stroke="#a85f00" stroke-width="1.4"/>
<line x1="1082.2" y1="366.0" x2="1082.2" y2="339.0" stroke="#a85f00" stroke-width="1" stroke-dasharray="2,2"/>
<polygon points="998.5,336.3 1281.4,336.3 1298.2,317.4 1322.5,317.4 1339.3,336.3 1344.1,336.3 1371.1,320.0 1371.1,293.2 1344.1,276.9 998.5,276.9" fill="#6f9fd8" fill-opacity="1" stroke="#3b6ea8" stroke-width="1.4"/>
<line x1="998.5" y1="336.3" x2="998.5" y2="276.9" stroke="#cfe0f5" stroke-width="2"/>
<line x1="998.5" y1="336.3" x2="998.5" y2="276.9" stroke="#3b6ea8" stroke-width="1" stroke-dasharray="3,2"/>
<circle cx="1141.6" cy="233.7" r="24.3" fill="white" stroke="#555" stroke-width="1.2"/>
<circle cx="989.0" cy="233.7" r="24.3" fill="white" stroke="#555" stroke-width="1.2"/>
<line x1="1066.0" y1="403.8" x2="1066.0" y2="144.6" stroke="#c0392b" stroke-width="1.6" stroke-dasharray="6,3"/>
<line x1="1187.5" y1="306.6" x2="1260.4" y2="306.6" stroke="#c0392b" stroke-width="2" marker-end="url(#arr)"/>
<text x="1182.1" y="302.6" font-size="12" text-anchor="end" font-weight="bold" fill="#c0392b">slide-on</text>
<line x1="1314.4" y1="372.8" x2="1314.4" y2="399.8" stroke="#c0392b" stroke-width="2" marker-end="url(#arr)"/>
<text x="1314.4" y="420.0" font-size="12" text-anchor="middle" font-weight="bold" fill="#c0392b">release: the flap bends out</text>
<text x="840.0" y="252.6" font-size="13" text-anchor="end" font-weight="bold" fill="#222">A's end wall</text>
<line x1="836.0" y1="248.6" x2="904.0" y2="285.0" stroke="#555" stroke-width="0.9"/>
<circle cx="904.0" cy="285.0" r="2.2" fill="#555"/>
<text x="840.0" y="214.8" font-size="13" text-anchor="end" font-weight="bold" fill="#222">corner screw (M2, floor)</text>
<line x1="836.0" y1="210.8" x2="989.0" y2="233.7" stroke="#555" stroke-width="0.9"/>
<circle cx="989.0" cy="233.7" r="2.2" fill="#555"/>
<text x="840.0" y="306.6" font-size="13" text-anchor="end" font-weight="bold" fill="#222">guide pin root,</text>
<text x="840.0" y="322.2" font-size="13" text-anchor="end" font-weight="bold" fill="#222">embedded in A</text>
<line x1="836.0" y1="302.6" x2="1017.4" y2="306.6" stroke="#555" stroke-width="0.9"/>
<circle cx="1017.4" cy="306.6" r="2.2" fill="#555"/>
<text x="840.0" y="371.4" font-size="13" text-anchor="end" font-weight="bold" fill="#222">end face</text>
<line x1="836.0" y1="367.4" x2="931.0" y2="366.0" stroke="#555" stroke-width="0.9"/>
<circle cx="931.0" cy="366.0" r="2.2" fill="#555"/>
<text x="1049.8" y="133.8" font-size="13" text-anchor="end" font-weight="bold" fill="#222">seam</text>
<line x1="1045.8" y1="129.8" x2="1066.0" y2="160.8" stroke="#555" stroke-width="0.9"/>
<circle cx="1066.0" cy="160.8" r="2.2" fill="#555"/>
<text x="1012.0" y="398.4" font-size="13" text-anchor="end" font-weight="bold" fill="#222">hinge (flap root)</text>
<line x1="1008.0" y1="394.4" x2="1074.1" y2="352.5" stroke="#555" stroke-width="0.9"/>
<circle cx="1074.1" cy="352.5" r="2.2" fill="#555"/>
<text x="1187.5" y="398.4" font-size="13" text-anchor="middle" font-weight="bold" fill="#222">flap</text>
<line x1="1187.5" y1="394.4" x2="1187.5" y2="352.5" stroke="#555" stroke-width="0.9"/>
<circle cx="1187.5" cy="352.5" r="2.2" fill="#555"/>
<text x="1460.2" y="363.3" font-size="13" text-anchor="start" font-weight="bold" fill="#222">free edge</text>
<line x1="1464.2" y1="359.3" x2="1357.6" y2="357.9" stroke="#555" stroke-width="0.9"/>
<circle cx="1357.6" cy="357.9" r="2.2" fill="#555"/>
<text x="1460.2" y="387.6" font-size="13" text-anchor="start" font-weight="bold" fill="#222">flap slot (fingernail gap)</text>
<line x1="1464.2" y1="383.6" x2="1365.7" y2="344.4" stroke="#555" stroke-width="0.9"/>
<circle cx="1365.7" cy="344.4" r="2.2" fill="#555"/>
<text x="1460.2" y="339.0" font-size="13" text-anchor="start" font-weight="bold" fill="#222">tooth</text>
<line x1="1464.2" y1="335.0" x2="1314.4" y2="326.9" stroke="#555" stroke-width="0.9"/>
<circle cx="1314.4" cy="326.9" r="2.2" fill="#555"/>
<text x="1460.2" y="317.4" font-size="13" text-anchor="start" font-weight="bold" fill="#222">lead-in face (45°)</text>
<line x1="1464.2" y1="313.4" x2="1296.8" y2="329.6" stroke="#555" stroke-width="0.9"/>
<circle cx="1296.8" cy="329.6" r="2.2" fill="#555"/>
<text x="1460.2" y="295.8" font-size="13" text-anchor="start" font-weight="bold" fill="#222">catch face (45°, toothCatchAngle)</text>
<line x1="1464.2" y1="291.8" x2="1332.0" y2="329.6" stroke="#555" stroke-width="0.9"/>
<circle cx="1332.0" cy="329.6" r="2.2" fill="#555"/>
<text x="1460.2" y="274.2" font-size="13" text-anchor="start" font-weight="bold" fill="#222">notch (in the pin)</text>
<line x1="1464.2" y1="270.2" x2="1310.3" y2="316.1" stroke="#555" stroke-width="0.9"/>
<circle cx="1310.3" cy="316.1" r="2.2" fill="#555"/>
<text x="1460.2" y="252.6" font-size="13" text-anchor="start" font-weight="bold" fill="#222">taper (pin tip)</text>
<line x1="1464.2" y1="248.6" x2="1360.3" y2="287.7" stroke="#555" stroke-width="0.9"/>
<circle cx="1360.3" cy="287.7" r="2.2" fill="#555"/>
<text x="1460.2" y="231.0" font-size="13" text-anchor="start" font-weight="bold" fill="#222">guide hole (B's)</text>
<line x1="1464.2" y1="227.0" x2="1375.2" y2="276.9" stroke="#555" stroke-width="0.9"/>
<circle cx="1375.2" cy="276.9" r="2.2" fill="#555"/>
<text x="1241.5" y="247.2" font-size="13" text-anchor="middle" font-weight="bold" fill="#222">guide pin (A's)</text>
<line x1="1241.5" y1="243.2" x2="1214.5" y2="279.6" stroke="#555" stroke-width="0.9"/>
<circle cx="1214.5" cy="279.6" r="2.2" fill="#555"/>
<text x="1460.2" y="209.4" font-size="13" text-anchor="start" font-weight="bold" fill="#222">B's end wall</text>
<line x1="1464.2" y1="205.4" x2="1403.5" y2="198.6" stroke="#555" stroke-width="0.9"/>
<circle cx="1403.5" cy="198.6" r="2.2" fill="#555"/>
<text x="1460.2" y="187.8" font-size="13" text-anchor="start" font-weight="bold" fill="#222">corner screw</text>
<line x1="1464.2" y1="183.8" x2="1157.8" y2="217.5" stroke="#555" stroke-width="0.9"/>
<circle cx="1157.8" cy="217.5" r="2.2" fill="#555"/>
<text x="850.0" y="453.0" font-size="11" text-anchor="start" font-weight="normal" fill="#666" font-style="italic">The slit (0.3 mm) separates the flap from the wall above and below the guide hole and runs through the top and rim;</text>
<text x="850.0" y="466.2" font-size="11" text-anchor="start" font-weight="normal" fill="#666" font-style="italic">at this height the guide hole itself separates them. The pin's 45° gables (top and bottom) are out of this cut.</text>
<text x="660.0" y="560.0" font-size="16" text-anchor="start" font-weight="bold" fill="#222">3  Section at a connector row, looking from the SW1 end (x right, z up)</text>
<polygon points="904.6,657.5 1183.1,671.7 1176.9,722.8 1153.7,722.8 1153.7,685.5 929.4,685.5 929.4,716.0 905.7,716.0" fill="#cfe0f5" fill-opacity="1" stroke="#3b6ea8" stroke-width="1.4"/>
<polygon points="906.4,754.4 1171.4,768.0 1169.0,787.4 906.7,774.0" fill="#3b6ea8" fill-opacity="0.35" stroke="#3b6ea8" stroke-width="1.2"/>
<polygon points="932.0,718.0 1151.0,718.0 1151.0,697.2 932.0,697.2" fill="#9cc26f" fill-opacity="1" stroke="#4a6b2a" stroke-width="1"/>
<polygon points="906.0,718.0 1016.5,718.0 1016.5,750.5 906.0,750.5" fill="#666" fill-opacity="1" stroke="#333" stroke-width="1"/>
<line x1="906.0" y1="734.2" x2="1016.5" y2="734.2" stroke="#ddd" stroke-width="2.2"/>
<polygon points="1138.9,726.7 1171.1,731.2 1166.6,763.4 1134.4,758.9" fill="#666" fill-opacity="1" stroke="#333" stroke-width="1"/>
<line x1="1077.1" y1="718.0" x2="1138.9" y2="726.7" stroke="#333" stroke-width="1.6"/>
<line x1="1124.3" y1="741.0" x2="1245.9" y2="758.1" stroke="#b8860b" stroke-width="8.32"/>
<polygon points="1183.1,671.7 1456.9,724.7 1443.7,774.4 1420.6,771.1 1425.8,734.2 1203.8,703.0 1199.5,733.2 1176.0,729.9" fill="#d6eed3" fill-opacity="1" stroke="#3c8a45" stroke-width="1.4"/>
<polygon points="1171.4,768.0 1431.9,818.4 1426.9,837.3 1169.0,787.4" fill="#3c8a45" fill-opacity="0.35" stroke="#3c8a45" stroke-width="1.2"/>
<polygon points="1201.8,735.5 1418.7,766.0 1421.6,745.4 1204.7,714.9" fill="#9cc26f" fill-opacity="1" stroke="#4a6b2a" stroke-width="1"/>
<polygon points="1176.1,731.9 1285.5,747.3 1281.0,779.5 1171.6,764.1" fill="#666" fill-opacity="1" stroke="#333" stroke-width="1"/>
<line x1="1173.8" y1="748.0" x2="1283.2" y2="763.4" stroke="#ddd" stroke-width="2.2"/>
<polygon points="1405.5,772.9 1436.8,781.9 1427.8,813.1 1396.6,804.2" fill="#666" fill-opacity="1" stroke="#333" stroke-width="1"/>
<line x1="1345.6" y1="755.7" x2="1405.5" y2="772.9" stroke="#333" stroke-width="1.6"/>
<line x1="1389.0" y1="785.1" x2="1507.1" y2="818.9" stroke="#b8860b" stroke-width="8.32"/>
<polygon points="1141.0,748.0 1318.7,772.9 1325.2,726.6 1147.5,701.6" fill="none" fill-opacity="1" stroke="#3b6ea8" stroke-width="1.3" stroke-dasharray="5,3"/>
<line x1="904.6" y1="657.5" x2="907.9" y2="839.1" stroke="#999" stroke-width="0.8" stroke-dasharray="2,3"/>
<line x1="1183.1" y1="671.7" x2="1161.1" y2="852.1" stroke="#999" stroke-width="0.8" stroke-dasharray="2,3"/>
<line x1="1183.1" y1="671.7" x2="1169.0" y2="787.4" stroke="#c0392b" stroke-width="1.6" stroke-dasharray="6,3"/>
<line x1="1343.6" y1="660.9" x2="1266.3" y2="650.1" stroke="#c0392b" stroke-width="2" marker-end="url(#arr)"/>
<text x="1244.0" y="595.8" font-size="12" text-anchor="start" font-weight="bold" fill="#c0392b">slide-on: B moves along its own board plane</text>
<text x="870.0" y="645.2" font-size="13" text-anchor="end" font-weight="bold" fill="#222">top</text>
<line x1="866.0" y1="641.2" x2="904.6" y2="657.5" stroke="#555" stroke-width="0.9"/>
<circle cx="904.6" cy="657.5" r="2.2" fill="#555"/>
<text x="870.0" y="673.8" font-size="13" text-anchor="end" font-weight="bold" fill="#222">plate (1.3 mm)</text>
<line x1="866.0" y1="669.8" x2="945.0" y2="676.4" stroke="#555" stroke-width="0.9"/>
<circle cx="945.0" cy="676.4" r="2.2" fill="#555"/>
<text x="870.0" y="697.2" font-size="13" text-anchor="end" font-weight="bold" fill="#222">shell</text>
<line x1="866.0" y1="693.2" x2="913.8" y2="698.5" stroke="#555" stroke-width="0.9"/>
<circle cx="913.8" cy="698.5" r="2.2" fill="#555"/>
<text x="870.0" y="712.8" font-size="13" text-anchor="end" font-weight="bold" fill="#222">socket face</text>
<line x1="866.0" y1="708.8" x2="906.1" y2="724.5" stroke="#555" stroke-width="0.9"/>
<circle cx="906.1" cy="724.5" r="2.2" fill="#555"/>
<text x="870.0" y="734.9" font-size="13" text-anchor="end" font-weight="bold" fill="#222">socket (female), mouth</text>
<text x="870.0" y="750.5" font-size="13" text-anchor="end" font-weight="bold" fill="#222">at the socket face</text>
<line x1="866.0" y1="730.9" x2="908.6" y2="734.2" stroke="#555" stroke-width="0.9"/>
<circle cx="908.6" cy="734.2" r="2.2" fill="#555"/>
<text x="870.0" y="774.7" font-size="13" text-anchor="end" font-weight="bold" fill="#222">rim</text>
<line x1="866.0" y1="770.7" x2="906.4" y2="754.4" stroke="#555" stroke-width="0.9"/>
<circle cx="906.4" cy="754.4" r="2.2" fill="#555"/>
<text x="870.0" y="793.6" font-size="13" text-anchor="end" font-weight="bold" fill="#222">floor</text>
<line x1="866.0" y1="789.6" x2="945.0" y2="763.5" stroke="#555" stroke-width="0.9"/>
<circle cx="945.0" cy="763.5" r="2.2" fill="#555"/>
<text x="1036.0" y="802.5" font-size="13" text-anchor="middle" font-weight="bold" fill="#222">board (PCB)</text>
<line x1="1036.0" y1="798.5" x2="1036.0" y2="707.6" stroke="#555" stroke-width="0.9"/>
<circle cx="1036.0" cy="707.6" r="2.2" fill="#555"/>
<text x="1036.0" y="825.9" font-size="13" text-anchor="middle" font-weight="bold" fill="#222">header (male), soldered</text>
<text x="1036.0" y="841.5" font-size="13" text-anchor="middle" font-weight="bold" fill="#222">tilted 8° about its pads' inboard end</text>
<line x1="1036.0" y1="821.9" x2="1151.2" y2="754.7" stroke="#555" stroke-width="0.9"/>
<circle cx="1151.2" cy="754.7" r="2.2" fill="#555"/>
<text x="1257.0" y="825.9" font-size="13" text-anchor="middle" font-weight="bold" fill="#222">header pins in B's socket</text>
<text x="1257.0" y="841.5" font-size="13" text-anchor="middle" font-weight="bold" fill="#222">(5.6 mm insertion)</text>
<line x1="1257.0" y1="821.9" x2="1212.4" y2="753.4" stroke="#555" stroke-width="0.9"/>
<circle cx="1212.4" cy="753.4" r="2.2" fill="#555"/>
<text x="1062.0" y="595.8" font-size="13" text-anchor="middle" font-weight="bold" fill="#222">header face (A) = seam</text>
<line x1="1062.0" y1="591.8" x2="1177.7" y2="702.4" stroke="#555" stroke-width="0.9"/>
<circle cx="1177.7" cy="702.4" r="2.2" fill="#555"/>
<text x="1497.5" y="705.0" font-size="13" text-anchor="start" font-weight="bold" fill="#222">guide pin silhouette</text>
<text x="1497.5" y="720.6" font-size="13" text-anchor="start" font-weight="bold" fill="#222">(at the column ends)</text>
<line x1="1501.5" y1="701.0" x2="1322.5" y2="745.9" stroke="#555" stroke-width="0.9"/>
<circle cx="1322.5" cy="745.9" r="2.2" fill="#555"/>
<text x="1497.5" y="749.2" font-size="13" text-anchor="start" font-weight="bold" fill="#222">pin axis (1.25 below the board)</text>
<line x1="1501.5" y1="745.2" x2="1276.8" y2="762.5" stroke="#555" stroke-width="0.9"/>
<circle cx="1276.8" cy="762.5" r="2.2" fill="#555"/>
<text x="1497.5" y="783.0" font-size="13" text-anchor="start" font-weight="bold" fill="#222">joint angle 8° between</text>
<text x="1497.5" y="798.6" font-size="13" text-anchor="start" font-weight="bold" fill="#222">the boards</text>
<line x1="1501.5" y1="779.0" x2="1356.3" y2="757.2" stroke="#555" stroke-width="0.9"/>
<circle cx="1356.3" cy="757.2" r="2.2" fill="#555"/>
<text x="660.0" y="895.0" font-size="11" text-anchor="start" font-weight="normal" fill="#666" font-style="italic">Dotted grey: the socket and header faces run radially to the joint centre, 149 mm below the board; that outline (a keystone) is why neighbours' tops and rims meet.</text>
</svg>