<svg xmlns="http://www.w3.org/2000/svg" viewBox="0 0 960 736" font-family="ui-sans-serif, -apple-system, 'Segoe UI', Helvetica, Arial, sans-serif">
<defs><marker id="ahd64541" viewBox="0 0 10 10" refX="8.5" refY="5" markerWidth="6" markerHeight="6" markerUnits="strokeWidth" orient="auto-start-reverse"><path d="M0,0.8 L10,5 L0,9.2 z" fill="#d64541"/></marker><marker id="ah2b6cb0" viewBox="0 0 10 10" refX="8.5" refY="5" markerWidth="6" markerHeight="6" markerUnits="strokeWidth" orient="auto-start-reverse"><path d="M0,0.8 L10,5 L0,9.2 z" fill="#2b6cb0"/></marker><marker id="ah6b6577" viewBox="0 0 10 10" refX="8.5" refY="5" markerWidth="6" markerHeight="6" markerUnits="strokeWidth" orient="auto-start-reverse"><path d="M0,0.8 L10,5 L0,9.2 z" fill="#6b6577"/></marker></defs>
<rect x="0" y="0" width="960" height="736" rx="18" fill="#fbf9f5"/>
<text x="36" y="50" font-size="22" font-weight="700" fill="#1d1a24">How a half reads its keys</text>
<text x="36" y="76" font-size="15" fill="#6b6577">One 74HC165 per key module. Its byte shifts toward the MCU module on DATA.</text>
<rect x="24" y="100" width="96" height="352" rx="10" fill="#f3eee4" stroke="#b8a57c" stroke-width="1.4"/>
<text x="72" y="126" font-size="15" text-anchor="middle" font-weight="700" fill="#1d1a24">terminator</text>
<text x="72" y="145" font-size="15" text-anchor="middle" font-weight="700" fill="#1d1a24">module</text>
<text x="58" y="206" font-size="14" text-anchor="middle" font-weight="700" font-family="ui-monospace, 'SF Mono', Menlo, monospace" fill="#d64541">+3.3V</text>
<circle cx="72" cy="218" r="4" fill="#d64541" stroke="none" stroke-width="1"/>
<polyline points="72,218 72,282 120,282" fill="none" stroke="#d64541" stroke-width="3" stroke-linejoin="round" stroke-linecap="round"/>
<text x="72" y="318" font-size="14" text-anchor="middle" fill="#6b6577">ties DATA</text>
<text x="72" y="336.9" font-size="14" text-anchor="middle" fill="#6b6577">to +3.3V</text>
<rect x="136" y="100" width="200" height="352" rx="10" fill="#f3eee4" stroke="#b8a57c" stroke-width="1.4"/>
<text x="236" y="126" font-size="15" text-anchor="middle" font-weight="700" fill="#1d1a24">key module</text>
<text x="236" y="146" font-size="15" text-anchor="middle" font-weight="600" fill="#6b3fa0">physical column p=2</text>
<line x1="167" y1="182" x2="251" y2="182" stroke="#d64541" stroke-width="2"/>
<text x="257" y="187" font-size="14" font-family="ui-monospace, 'SF Mono', Menlo, monospace" fill="#d64541">+3.3V</text>
<text x="173" y="170" font-size="14" text-anchor="middle" font-family="ui-monospace, 'SF Mono', Menlo, monospace" fill="#1d1a24">SW1</text>
<text x="245" y="170" font-size="14" text-anchor="middle" font-family="ui-monospace, 'SF Mono', Menlo, monospace" fill="#1d1a24">SW5</text>
<line x1="173" y1="182" x2="173" y2="194" stroke="#1d1a24" stroke-width="1.3"/>
<circle cx="173" cy="196" r="2.2" fill="none" stroke="#1d1a24" stroke-width="1.3"/>
<line x1="173" y1="198" x2="179" y2="208" stroke="#1d1a24" stroke-width="1.3"/>
<circle cx="173" cy="212" r="2.2" fill="none" stroke="#1d1a24" stroke-width="1.3"/>
<line x1="173" y1="214" x2="173" y2="244" stroke="#1d1a24" stroke-width="1.3"/>
<line x1="191" y1="182" x2="191" y2="194" stroke="#1d1a24" stroke-width="1.3"/>
<circle cx="191" cy="196" r="2.2" fill="none" stroke="#1d1a24" stroke-width="1.3"/>
<line x1="191" y1="198" x2="197" y2="208" stroke="#1d1a24" stroke-width="1.3"/>
<circle cx="191" cy="212" r="2.2" fill="none" stroke="#1d1a24" stroke-width="1.3"/>
<line x1="191" y1="214" x2="191" y2="244" stroke="#1d1a24" stroke-width="1.3"/>
<line x1="209" y1="182" x2="209" y2="194" stroke="#1d1a24" stroke-width="1.3"/>
<circle cx="209" cy="196" r="2.2" fill="none" stroke="#1d1a24" stroke-width="1.3"/>
<line x1="209" y1="198" x2="215" y2="208" stroke="#1d1a24" stroke-width="1.3"/>
<circle cx="209" cy="212" r="2.2" fill="none" stroke="#1d1a24" stroke-width="1.3"/>
<line x1="209" y1="214" x2="209" y2="244" stroke="#1d1a24" stroke-width="1.3"/>
<line x1="227" y1="182" x2="227" y2="194" stroke="#1d1a24" stroke-width="1.3"/>
<circle cx="227" cy="196" r="2.2" fill="none" stroke="#1d1a24" stroke-width="1.3"/>
<line x1="227" y1="198" x2="233" y2="208" stroke="#1d1a24" stroke-width="1.3"/>
<circle cx="227" cy="212" r="2.2" fill="none" stroke="#1d1a24" stroke-width="1.3"/>
<line x1="227" y1="214" x2="227" y2="244" stroke="#1d1a24" stroke-width="1.3"/>
<line x1="245" y1="182" x2="245" y2="194" stroke="#1d1a24" stroke-width="1.3"/>
<circle cx="245" cy="196" r="2.2" fill="none" stroke="#1d1a24" stroke-width="1.3"/>
<line x1="245" y1="198" x2="251" y2="208" stroke="#1d1a24" stroke-width="1.3"/>
<circle cx="245" cy="212" r="2.2" fill="none" stroke="#1d1a24" stroke-width="1.3"/>
<line x1="245" y1="214" x2="245" y2="244" stroke="#1d1a24" stroke-width="1.3"/>
<line x1="263" y1="226" x2="263" y2="244" stroke="#333333" stroke-width="1.3"/>
<line x1="281" y1="226" x2="281" y2="244" stroke="#333333" stroke-width="1.3"/>
<line x1="299" y1="226" x2="299" y2="244" stroke="#333333" stroke-width="1.3"/>
<line x1="263" y1="226" x2="322" y2="226" stroke="#333333" stroke-width="1.3"/>
<line x1="322" y1="226" x2="322" y2="238" stroke="#333333" stroke-width="1.3"/>
<line x1="315" y1="238" x2="329" y2="238" stroke="#333333" stroke-width="1.6"/>
<line x1="317.5" y1="242" x2="326.5" y2="242" stroke="#333333" stroke-width="1.6"/>
<line x1="320" y1="246" x2="324" y2="246" stroke="#333333" stroke-width="1.6"/>
<rect x="164" y="244" width="144" height="78" rx="3" fill="#ffffff" stroke="#1d1a24" stroke-width="1.6"/>
<text x="173" y="260" font-size="14" text-anchor="middle" font-family="ui-monospace, 'SF Mono', Menlo, monospace" fill="#1d1a24">A</text>
<text x="191" y="260" font-size="14" text-anchor="middle" font-family="ui-monospace, 'SF Mono', Menlo, monospace" fill="#1d1a24">B</text>
<text x="209" y="260" font-size="14" text-anchor="middle" font-family="ui-monospace, 'SF Mono', Menlo, monospace" fill="#1d1a24">C</text>
<text x="227" y="260" font-size="14" text-anchor="middle" font-family="ui-monospace, 'SF Mono', Menlo, monospace" fill="#1d1a24">D</text>
<text x="245" y="260" font-size="14" text-anchor="middle" font-family="ui-monospace, 'SF Mono', Menlo, monospace" fill="#1d1a24">E</text>
<text x="263" y="260" font-size="14" text-anchor="middle" font-family="ui-monospace, 'SF Mono', Menlo, monospace" fill="#6b6577">F</text>
<text x="281" y="260" font-size="14" text-anchor="middle" font-family="ui-monospace, 'SF Mono', Menlo, monospace" fill="#6b6577">G</text>
<text x="299" y="260" font-size="14" text-anchor="middle" font-family="ui-monospace, 'SF Mono', Menlo, monospace" fill="#6b6577">H</text>
<text x="236" y="288" font-size="15" text-anchor="middle" font-weight="700" font-family="ui-monospace, 'SF Mono', Menlo, monospace" fill="#1d1a24">74HC165</text>
<text x="160" y="274" font-size="14" text-anchor="end" font-family="ui-monospace, 'SF Mono', Menlo, monospace" fill="#2b6cb0">SER</text>
<text x="312" y="274" font-size="14" font-family="ui-monospace, 'SF Mono', Menlo, monospace" fill="#2b6cb0">QH</text>
<text x="198" y="314" font-size="14" text-anchor="middle" font-family="ui-monospace, 'SF Mono', Menlo, monospace" fill="#1d1a24">CLK</text>
<text x="268" y="314" font-size="14" text-anchor="middle" font-family="ui-monospace, 'SF Mono', Menlo, monospace" fill="#1d1a24">/PL</text>
<line x1="198" y1="322" x2="198" y2="380" stroke="#1d1a24" stroke-width="1.4"/>
<circle cx="198" cy="380" r="3.5" fill="#1d1a24" stroke="none" stroke-width="1"/>
<line x1="268" y1="322" x2="268" y2="410" stroke="#1d1a24" stroke-width="1.4"/>
<circle cx="268" cy="410" r="3.5" fill="#1d1a24" stroke="none" stroke-width="1"/>
<line x1="136" y1="282" x2="164" y2="282" stroke="#2b6cb0" stroke-width="3"/>
<line x1="308" y1="282" x2="336" y2="282" stroke="#2b6cb0" stroke-width="3"/>
<rect x="352" y="100" width="200" height="352" rx="10" fill="#f3eee4" stroke="#b8a57c" stroke-width="1.4"/>
<text x="452" y="126" font-size="15" text-anchor="middle" font-weight="700" fill="#1d1a24">key module</text>
<text x="452" y="146" font-size="15" text-anchor="middle" font-weight="600" fill="#6b3fa0">physical column p=1</text>
<line x1="383" y1="182" x2="467" y2="182" stroke="#d64541" stroke-width="2"/>
<text x="473" y="187" font-size="14" font-family="ui-monospace, 'SF Mono', Menlo, monospace" fill="#d64541">+3.3V</text>
<text x="389" y="170" font-size="14" text-anchor="middle" font-family="ui-monospace, 'SF Mono', Menlo, monospace" fill="#1d1a24">SW1</text>
<text x="461" y="170" font-size="14" text-anchor="middle" font-family="ui-monospace, 'SF Mono', Menlo, monospace" fill="#1d1a24">SW5</text>
<line x1="389" y1="182" x2="389" y2="194" stroke="#1d1a24" stroke-width="1.3"/>
<circle cx="389" cy="196" r="2.2" fill="none" stroke="#1d1a24" stroke-width="1.3"/>
<line x1="389" y1="198" x2="395" y2="208" stroke="#1d1a24" stroke-width="1.3"/>
<circle cx="389" cy="212" r="2.2" fill="none" stroke="#1d1a24" stroke-width="1.3"/>
<line x1="389" y1="214" x2="389" y2="244" stroke="#1d1a24" stroke-width="1.3"/>
<line x1="407" y1="182" x2="407" y2="194" stroke="#1d1a24" stroke-width="1.3"/>
<circle cx="407" cy="196" r="2.2" fill="none" stroke="#1d1a24" stroke-width="1.3"/>
<line x1="407" y1="198" x2="413" y2="208" stroke="#1d1a24" stroke-width="1.3"/>
<circle cx="407" cy="212" r="2.2" fill="none" stroke="#1d1a24" stroke-width="1.3"/>
<line x1="407" y1="214" x2="407" y2="244" stroke="#1d1a24" stroke-width="1.3"/>
<line x1="425" y1="182" x2="425" y2="194" stroke="#1d1a24" stroke-width="1.3"/>
<circle cx="425" cy="196" r="2.2" fill="none" stroke="#1d1a24" stroke-width="1.3"/>
<line x1="425" y1="198" x2="431" y2="208" stroke="#1d1a24" stroke-width="1.3"/>
<circle cx="425" cy="212" r="2.2" fill="none" stroke="#1d1a24" stroke-width="1.3"/>
<line x1="425" y1="214" x2="425" y2="244" stroke="#1d1a24" stroke-width="1.3"/>
<line x1="443" y1="182" x2="443" y2="194" stroke="#1d1a24" stroke-width="1.3"/>
<circle cx="443" cy="196" r="2.2" fill="none" stroke="#1d1a24" stroke-width="1.3"/>
<line x1="443" y1="198" x2="449" y2="208" stroke="#1d1a24" stroke-width="1.3"/>
<circle cx="443" cy="212" r="2.2" fill="none" stroke="#1d1a24" stroke-width="1.3"/>
<line x1="443" y1="214" x2="443" y2="244" stroke="#1d1a24" stroke-width="1.3"/>
<line x1="461" y1="182" x2="461" y2="194" stroke="#1d1a24" stroke-width="1.3"/>
<circle cx="461" cy="196" r="2.2" fill="none" stroke="#1d1a24" stroke-width="1.3"/>
<line x1="461" y1="198" x2="467" y2="208" stroke="#1d1a24" stroke-width="1.3"/>
<circle cx="461" cy="212" r="2.2" fill="none" stroke="#1d1a24" stroke-width="1.3"/>
<line x1="461" y1="214" x2="461" y2="244" stroke="#1d1a24" stroke-width="1.3"/>
<line x1="479" y1="226" x2="479" y2="244" stroke="#333333" stroke-width="1.3"/>
<line x1="497" y1="226" x2="497" y2="244" stroke="#333333" stroke-width="1.3"/>
<line x1="515" y1="226" x2="515" y2="244" stroke="#333333" stroke-width="1.3"/>
<line x1="479" y1="226" x2="538" y2="226" stroke="#333333" stroke-width="1.3"/>
<line x1="538" y1="226" x2="538" y2="238" stroke="#333333" stroke-width="1.3"/>
<line x1="531" y1="238" x2="545" y2="238" stroke="#333333" stroke-width="1.6"/>
<line x1="533.5" y1="242" x2="542.5" y2="242" stroke="#333333" stroke-width="1.6"/>
<line x1="536" y1="246" x2="540" y2="246" stroke="#333333" stroke-width="1.6"/>
<rect x="380" y="244" width="144" height="78" rx="3" fill="#ffffff" stroke="#1d1a24" stroke-width="1.6"/>
<text x="389" y="260" font-size="14" text-anchor="middle" font-family="ui-monospace, 'SF Mono', Menlo, monospace" fill="#1d1a24">A</text>
<text x="407" y="260" font-size="14" text-anchor="middle" font-family="ui-monospace, 'SF Mono', Menlo, monospace" fill="#1d1a24">B</text>
<text x="425" y="260" font-size="14" text-anchor="middle" font-family="ui-monospace, 'SF Mono', Menlo, monospace" fill="#1d1a24">C</text>
<text x="443" y="260" font-size="14" text-anchor="middle" font-family="ui-monospace, 'SF Mono', Menlo, monospace" fill="#1d1a24">D</text>
<text x="461" y="260" font-size="14" text-anchor="middle" font-family="ui-monospace, 'SF Mono', Menlo, monospace" fill="#1d1a24">E</text>
<text x="479" y="260" font-size="14" text-anchor="middle" font-family="ui-monospace, 'SF Mono', Menlo, monospace" fill="#6b6577">F</text>
<text x="497" y="260" font-size="14" text-anchor="middle" font-family="ui-monospace, 'SF Mono', Menlo, monospace" fill="#6b6577">G</text>
<text x="515" y="260" font-size="14" text-anchor="middle" font-family="ui-monospace, 'SF Mono', Menlo, monospace" fill="#6b6577">H</text>
<text x="452" y="288" font-size="15" text-anchor="middle" font-weight="700" font-family="ui-monospace, 'SF Mono', Menlo, monospace" fill="#1d1a24">74HC165</text>
<text x="376" y="274" font-size="14" text-anchor="end" font-family="ui-monospace, 'SF Mono', Menlo, monospace" fill="#2b6cb0">SER</text>
<text x="528" y="274" font-size="14" font-family="ui-monospace, 'SF Mono', Menlo, monospace" fill="#2b6cb0">QH</text>
<text x="414" y="314" font-size="14" text-anchor="middle" font-family="ui-monospace, 'SF Mono', Menlo, monospace" fill="#1d1a24">CLK</text>
<text x="484" y="314" font-size="14" text-anchor="middle" font-family="ui-monospace, 'SF Mono', Menlo, monospace" fill="#1d1a24">/PL</text>
<line x1="414" y1="322" x2="414" y2="380" stroke="#1d1a24" stroke-width="1.4"/>
<circle cx="414" cy="380" r="3.5" fill="#1d1a24" stroke="none" stroke-width="1"/>
<line x1="484" y1="322" x2="484" y2="410" stroke="#1d1a24" stroke-width="1.4"/>
<circle cx="484" cy="410" r="3.5" fill="#1d1a24" stroke="none" stroke-width="1"/>
<line x1="352" y1="282" x2="380" y2="282" stroke="#2b6cb0" stroke-width="3"/>
<line x1="524" y1="282" x2="552" y2="282" stroke="#2b6cb0" stroke-width="3"/>
<rect x="568" y="100" width="200" height="352" rx="10" fill="#f3eee4" stroke="#b8a57c" stroke-width="1.4"/>
<text x="668" y="126" font-size="15" text-anchor="middle" font-weight="700" fill="#1d1a24">key module</text>
<text x="668" y="146" font-size="15" text-anchor="middle" font-weight="600" fill="#6b3fa0">physical column p=0</text>
<line x1="599" y1="182" x2="683" y2="182" stroke="#d64541" stroke-width="2"/>
<text x="689" y="187" font-size="14" font-family="ui-monospace, 'SF Mono', Menlo, monospace" fill="#d64541">+3.3V</text>
<text x="605" y="170" font-size="14" text-anchor="middle" font-family="ui-monospace, 'SF Mono', Menlo, monospace" fill="#1d1a24">SW1</text>
<text x="677" y="170" font-size="14" text-anchor="middle" font-family="ui-monospace, 'SF Mono', Menlo, monospace" fill="#1d1a24">SW5</text>
<line x1="605" y1="182" x2="605" y2="194" stroke="#1d1a24" stroke-width="1.3"/>
<circle cx="605" cy="196" r="2.2" fill="none" stroke="#1d1a24" stroke-width="1.3"/>
<line x1="605" y1="198" x2="611" y2="208" stroke="#1d1a24" stroke-width="1.3"/>
<circle cx="605" cy="212" r="2.2" fill="none" stroke="#1d1a24" stroke-width="1.3"/>
<line x1="605" y1="214" x2="605" y2="244" stroke="#1d1a24" stroke-width="1.3"/>
<line x1="623" y1="182" x2="623" y2="194" stroke="#1d1a24" stroke-width="1.3"/>
<circle cx="623" cy="196" r="2.2" fill="none" stroke="#1d1a24" stroke-width="1.3"/>
<line x1="623" y1="198" x2="629" y2="208" stroke="#1d1a24" stroke-width="1.3"/>
<circle cx="623" cy="212" r="2.2" fill="none" stroke="#1d1a24" stroke-width="1.3"/>
<line x1="623" y1="214" x2="623" y2="244" stroke="#1d1a24" stroke-width="1.3"/>
<line x1="641" y1="182" x2="641" y2="194" stroke="#1d1a24" stroke-width="1.3"/>
<circle cx="641" cy="196" r="2.2" fill="none" stroke="#1d1a24" stroke-width="1.3"/>
<line x1="641" y1="198" x2="647" y2="208" stroke="#1d1a24" stroke-width="1.3"/>
<circle cx="641" cy="212" r="2.2" fill="none" stroke="#1d1a24" stroke-width="1.3"/>
<line x1="641" y1="214" x2="641" y2="244" stroke="#1d1a24" stroke-width="1.3"/>
<line x1="659" y1="182" x2="659" y2="194" stroke="#1d1a24" stroke-width="1.3"/>
<circle cx="659" cy="196" r="2.2" fill="none" stroke="#1d1a24" stroke-width="1.3"/>
<line x1="659" y1="198" x2="665" y2="208" stroke="#1d1a24" stroke-width="1.3"/>
<circle cx="659" cy="212" r="2.2" fill="none" stroke="#1d1a24" stroke-width="1.3"/>
<line x1="659" y1="214" x2="659" y2="244" stroke="#1d1a24" stroke-width="1.3"/>
<line x1="677" y1="182" x2="677" y2="194" stroke="#1d1a24" stroke-width="1.3"/>
<circle cx="677" cy="196" r="2.2" fill="none" stroke="#1d1a24" stroke-width="1.3"/>
<line x1="677" y1="198" x2="683" y2="208" stroke="#1d1a24" stroke-width="1.3"/>
<circle cx="677" cy="212" r="2.2" fill="none" stroke="#1d1a24" stroke-width="1.3"/>
<line x1="677" y1="214" x2="677" y2="244" stroke="#1d1a24" stroke-width="1.3"/>
<line x1="695" y1="226" x2="695" y2="244" stroke="#333333" stroke-width="1.3"/>
<line x1="713" y1="226" x2="713" y2="244" stroke="#333333" stroke-width="1.3"/>
<line x1="731" y1="226" x2="731" y2="244" stroke="#333333" stroke-width="1.3"/>
<line x1="695" y1="226" x2="754" y2="226" stroke="#333333" stroke-width="1.3"/>
<line x1="754" y1="226" x2="754" y2="238" stroke="#333333" stroke-width="1.3"/>
<line x1="747" y1="238" x2="761" y2="238" stroke="#333333" stroke-width="1.6"/>
<line x1="749.5" y1="242" x2="758.5" y2="242" stroke="#333333" stroke-width="1.6"/>
<line x1="752" y1="246" x2="756" y2="246" stroke="#333333" stroke-width="1.6"/>
<rect x="596" y="244" width="144" height="78" rx="3" fill="#ffffff" stroke="#1d1a24" stroke-width="1.6"/>
<text x="605" y="260" font-size="14" text-anchor="middle" font-family="ui-monospace, 'SF Mono', Menlo, monospace" fill="#1d1a24">A</text>
<text x="623" y="260" font-size="14" text-anchor="middle" font-family="ui-monospace, 'SF Mono', Menlo, monospace" fill="#1d1a24">B</text>
<text x="641" y="260" font-size="14" text-anchor="middle" font-family="ui-monospace, 'SF Mono', Menlo, monospace" fill="#1d1a24">C</text>
<text x="659" y="260" font-size="14" text-anchor="middle" font-family="ui-monospace, 'SF Mono', Menlo, monospace" fill="#1d1a24">D</text>
<text x="677" y="260" font-size="14" text-anchor="middle" font-family="ui-monospace, 'SF Mono', Menlo, monospace" fill="#1d1a24">E</text>
<text x="695" y="260" font-size="14" text-anchor="middle" font-family="ui-monospace, 'SF Mono', Menlo, monospace" fill="#6b6577">F</text>
<text x="713" y="260" font-size="14" text-anchor="middle" font-family="ui-monospace, 'SF Mono', Menlo, monospace" fill="#6b6577">G</text>
<text x="731" y="260" font-size="14" text-anchor="middle" font-family="ui-monospace, 'SF Mono', Menlo, monospace" fill="#6b6577">H</text>
<text x="668" y="288" font-size="15" text-anchor="middle" font-weight="700" font-family="ui-monospace, 'SF Mono', Menlo, monospace" fill="#1d1a24">74HC165</text>
<text x="592" y="274" font-size="14" text-anchor="end" font-family="ui-monospace, 'SF Mono', Menlo, monospace" fill="#2b6cb0">SER</text>
<text x="744" y="274" font-size="14" font-family="ui-monospace, 'SF Mono', Menlo, monospace" fill="#2b6cb0">QH</text>
<text x="630" y="314" font-size="14" text-anchor="middle" font-family="ui-monospace, 'SF Mono', Menlo, monospace" fill="#1d1a24">CLK</text>
<text x="700" y="314" font-size="14" text-anchor="middle" font-family="ui-monospace, 'SF Mono', Menlo, monospace" fill="#1d1a24">/PL</text>
<line x1="630" y1="322" x2="630" y2="380" stroke="#1d1a24" stroke-width="1.4"/>
<circle cx="630" cy="380" r="3.5" fill="#1d1a24" stroke="none" stroke-width="1"/>
<line x1="700" y1="322" x2="700" y2="410" stroke="#1d1a24" stroke-width="1.4"/>
<circle cx="700" cy="410" r="3.5" fill="#1d1a24" stroke="none" stroke-width="1"/>
<line x1="568" y1="282" x2="596" y2="282" stroke="#2b6cb0" stroke-width="3"/>
<line x1="740" y1="282" x2="768" y2="282" stroke="#2b6cb0" stroke-width="3"/>
<line x1="110" y1="282" x2="156" y2="282" stroke="#d64541" stroke-width="3" marker-end="url(#ahd64541)"/>
<line x1="326" y1="282" x2="372" y2="282" stroke="#2b6cb0" stroke-width="3" marker-end="url(#ah2b6cb0)"/>
<line x1="542" y1="282" x2="588" y2="282" stroke="#2b6cb0" stroke-width="3" marker-end="url(#ah2b6cb0)"/>
<line x1="758" y1="282" x2="806" y2="282" stroke="#2b6cb0" stroke-width="3" marker-end="url(#ah2b6cb0)"/>
<line x1="144" y1="380" x2="846" y2="380" stroke="#1d1a24" stroke-width="2"/>
<circle cx="144" cy="380" r="3" fill="none" stroke="#1d1a24" stroke-width="1.6"/>
<line x1="144" y1="410" x2="846" y2="410" stroke="#1d1a24" stroke-width="2"/>
<circle cx="144" cy="410" r="3" fill="none" stroke="#1d1a24" stroke-width="1.6"/>
<rect x="784" y="100" width="150" height="352" rx="10" fill="#efe9f6" stroke="#b8a57c" stroke-width="1.4"/>
<text x="859" y="126" font-size="15" text-anchor="middle" font-weight="700" fill="#1d1a24">MCU module</text>
<rect x="846" y="214" width="76" height="222" rx="5" fill="#5b3a8c" stroke="#5b3a8c" stroke-width="1"/>
<text x="884" y="202" font-size="14" text-anchor="middle" fill="#6b6577">nice!nano</text>
<line x1="784" y1="282" x2="846" y2="282" stroke="#2b6cb0" stroke-width="3"/>
<circle cx="846" cy="282" r="3.5" fill="#c9a227" stroke="none" stroke-width="1"/>
<text x="854" y="287" font-size="14" font-family="ui-monospace, 'SF Mono', Menlo, monospace" fill="#ffffff">D14</text>
<text x="792" y="274" font-size="14" font-weight="700" font-family="ui-monospace, 'SF Mono', Menlo, monospace" fill="#2b6cb0">DATA</text>
<circle cx="846" cy="380" r="3.5" fill="#c9a227" stroke="none" stroke-width="1"/>
<text x="854" y="385" font-size="14" font-family="ui-monospace, 'SF Mono', Menlo, monospace" fill="#ffffff">D15</text>
<text x="792" y="372" font-size="14" font-weight="700" font-family="ui-monospace, 'SF Mono', Menlo, monospace" fill="#1d1a24">CLK</text>
<circle cx="846" cy="410" r="3.5" fill="#c9a227" stroke="none" stroke-width="1"/>
<text x="854" y="415" font-size="14" font-family="ui-monospace, 'SF Mono', Menlo, monospace" fill="#ffffff">D18</text>
<text x="792" y="402" font-size="14" font-weight="700" font-family="ui-monospace, 'SF Mono', Menlo, monospace" fill="#1d1a24">/PL</text>
<text x="150" y="478" font-size="14" fill="#6b6577">/PL loads every 165 at once. Each CLK then shifts every byte one bit toward the MCU module.</text>
<text x="36" y="518" font-size="16" font-weight="700" fill="#1d1a24">DATA as the MCU module reads it: nearest key module first, bit 7 first</text>
<text x="177" y="540" font-size="15" text-anchor="middle" font-weight="700" fill="#1d1a24">p=0 byte</text>
<rect x="93" y="548" width="21" height="32" fill="#ebe7e0" stroke="#d8d1c4" stroke-width="1.2"/>
<text x="103.5" y="570" font-size="15" text-anchor="middle" font-family="ui-monospace, 'SF Mono', Menlo, monospace" fill="#6b6577">0</text>
<rect x="114" y="548" width="21" height="32" fill="#ebe7e0" stroke="#d8d1c4" stroke-width="1.2"/>
<text x="124.5" y="570" font-size="15" text-anchor="middle" font-family="ui-monospace, 'SF Mono', Menlo, monospace" fill="#6b6577">0</text>
<rect x="135" y="548" width="21" height="32" fill="#ebe7e0" stroke="#d8d1c4" stroke-width="1.2"/>
<text x="145.5" y="570" font-size="15" text-anchor="middle" font-family="ui-monospace, 'SF Mono', Menlo, monospace" fill="#6b6577">0</text>
<rect x="156" y="548" width="21" height="32" fill="#ffffff" stroke="#d8d1c4" stroke-width="1.2"/>
<text x="166.5" y="570" font-size="15" text-anchor="middle" font-family="ui-monospace, 'SF Mono', Menlo, monospace" fill="#1d1a24">E</text>
<rect x="177" y="548" width="21" height="32" fill="#ffffff" stroke="#d8d1c4" stroke-width="1.2"/>
<text x="187.5" y="570" font-size="15" text-anchor="middle" font-family="ui-monospace, 'SF Mono', Menlo, monospace" fill="#1d1a24">D</text>
<rect x="198" y="548" width="21" height="32" fill="#ffffff" stroke="#d8d1c4" stroke-width="1.2"/>
<text x="208.5" y="570" font-size="15" text-anchor="middle" font-family="ui-monospace, 'SF Mono', Menlo, monospace" fill="#1d1a24">C</text>
<rect x="219" y="548" width="21" height="32" fill="#ffffff" stroke="#d8d1c4" stroke-width="1.2"/>
<text x="229.5" y="570" font-size="15" text-anchor="middle" font-family="ui-monospace, 'SF Mono', Menlo, monospace" fill="#1d1a24">B</text>
<rect x="240" y="548" width="21" height="32" fill="#ffffff" stroke="#d8d1c4" stroke-width="1.2"/>
<text x="250.5" y="570" font-size="15" text-anchor="middle" font-family="ui-monospace, 'SF Mono', Menlo, monospace" fill="#1d1a24">A</text>
<text x="177" y="602" font-size="14" text-anchor="middle" font-family="ui-monospace, 'SF Mono', Menlo, monospace" fill="#6b6577">byte 0</text>
<line x1="266" y1="564" x2="290" y2="564" stroke="#6b6577" stroke-width="1.6" marker-end="url(#ah6b6577)"/>
<text x="379" y="540" font-size="15" text-anchor="middle" font-weight="700" fill="#1d1a24">p=1 byte</text>
<rect x="295" y="548" width="21" height="32" fill="#ebe7e0" stroke="#d8d1c4" stroke-width="1.2"/>
<text x="305.5" y="570" font-size="15" text-anchor="middle" font-family="ui-monospace, 'SF Mono', Menlo, monospace" fill="#6b6577">0</text>
<rect x="316" y="548" width="21" height="32" fill="#ebe7e0" stroke="#d8d1c4" stroke-width="1.2"/>
<text x="326.5" y="570" font-size="15" text-anchor="middle" font-family="ui-monospace, 'SF Mono', Menlo, monospace" fill="#6b6577">0</text>
<rect x="337" y="548" width="21" height="32" fill="#ebe7e0" stroke="#d8d1c4" stroke-width="1.2"/>
<text x="347.5" y="570" font-size="15" text-anchor="middle" font-family="ui-monospace, 'SF Mono', Menlo, monospace" fill="#6b6577">0</text>
<rect x="358" y="548" width="21" height="32" fill="#ffffff" stroke="#d8d1c4" stroke-width="1.2"/>
<text x="368.5" y="570" font-size="15" text-anchor="middle" font-family="ui-monospace, 'SF Mono', Menlo, monospace" fill="#1d1a24">E</text>
<rect x="379" y="548" width="21" height="32" fill="#ffffff" stroke="#d8d1c4" stroke-width="1.2"/>
<text x="389.5" y="570" font-size="15" text-anchor="middle" font-family="ui-monospace, 'SF Mono', Menlo, monospace" fill="#1d1a24">D</text>
<rect x="400" y="548" width="21" height="32" fill="#ffffff" stroke="#d8d1c4" stroke-width="1.2"/>
<text x="410.5" y="570" font-size="15" text-anchor="middle" font-family="ui-monospace, 'SF Mono', Menlo, monospace" fill="#1d1a24">C</text>
<rect x="421" y="548" width="21" height="32" fill="#ffffff" stroke="#d8d1c4" stroke-width="1.2"/>
<text x="431.5" y="570" font-size="15" text-anchor="middle" font-family="ui-monospace, 'SF Mono', Menlo, monospace" fill="#1d1a24">B</text>
<rect x="442" y="548" width="21" height="32" fill="#ffffff" stroke="#d8d1c4" stroke-width="1.2"/>
<text x="452.5" y="570" font-size="15" text-anchor="middle" font-family="ui-monospace, 'SF Mono', Menlo, monospace" fill="#1d1a24">A</text>
<text x="379" y="602" font-size="14" text-anchor="middle" font-family="ui-monospace, 'SF Mono', Menlo, monospace" fill="#6b6577">byte 1</text>
<line x1="468" y1="564" x2="492" y2="564" stroke="#6b6577" stroke-width="1.6" marker-end="url(#ah6b6577)"/>
<text x="581" y="540" font-size="15" text-anchor="middle" font-weight="700" fill="#1d1a24">p=2 byte</text>
<rect x="497" y="548" width="21" height="32" fill="#ebe7e0" stroke="#d8d1c4" stroke-width="1.2"/>
<text x="507.5" y="570" font-size="15" text-anchor="middle" font-family="ui-monospace, 'SF Mono', Menlo, monospace" fill="#6b6577">0</text>
<rect x="518" y="548" width="21" height="32" fill="#ebe7e0" stroke="#d8d1c4" stroke-width="1.2"/>
<text x="528.5" y="570" font-size="15" text-anchor="middle" font-family="ui-monospace, 'SF Mono', Menlo, monospace" fill="#6b6577">0</text>
<rect x="539" y="548" width="21" height="32" fill="#ebe7e0" stroke="#d8d1c4" stroke-width="1.2"/>
<text x="549.5" y="570" font-size="15" text-anchor="middle" font-family="ui-monospace, 'SF Mono', Menlo, monospace" fill="#6b6577">0</text>
<rect x="560" y="548" width="21" height="32" fill="#ffffff" stroke="#d8d1c4" stroke-width="1.2"/>
<text x="570.5" y="570" font-size="15" text-anchor="middle" font-family="ui-monospace, 'SF Mono', Menlo, monospace" fill="#1d1a24">E</text>
<rect x="581" y="548" width="21" height="32" fill="#ffffff" stroke="#d8d1c4" stroke-width="1.2"/>
<text x="591.5" y="570" font-size="15" text-anchor="middle" font-family="ui-monospace, 'SF Mono', Menlo, monospace" fill="#1d1a24">D</text>
<rect x="602" y="548" width="21" height="32" fill="#ffffff" stroke="#d8d1c4" stroke-width="1.2"/>
<text x="612.5" y="570" font-size="15" text-anchor="middle" font-family="ui-monospace, 'SF Mono', Menlo, monospace" fill="#1d1a24">C</text>
<rect x="623" y="548" width="21" height="32" fill="#ffffff" stroke="#d8d1c4" stroke-width="1.2"/>
<text x="633.5" y="570" font-size="15" text-anchor="middle" font-family="ui-monospace, 'SF Mono', Menlo, monospace" fill="#1d1a24">B</text>
<rect x="644" y="548" width="21" height="32" fill="#ffffff" stroke="#d8d1c4" stroke-width="1.2"/>
<text x="654.5" y="570" font-size="15" text-anchor="middle" font-family="ui-monospace, 'SF Mono', Menlo, monospace" fill="#1d1a24">A</text>
<text x="581" y="602" font-size="14" text-anchor="middle" font-family="ui-monospace, 'SF Mono', Menlo, monospace" fill="#6b6577">byte 2</text>
<line x1="670" y1="564" x2="694" y2="564" stroke="#6b6577" stroke-width="1.6" marker-end="url(#ah6b6577)"/>
<text x="783" y="540" font-size="15" text-anchor="middle" font-weight="700" fill="#6b3fa0">0xFF: sentinel</text>
<rect x="699" y="548" width="21" height="32" fill="#ece6f5" stroke="#6b3fa0" stroke-width="2.4"/>
<text x="709.5" y="570" font-size="15" text-anchor="middle" font-weight="700" font-family="ui-monospace, 'SF Mono', Menlo, monospace" fill="#1d1a24">1</text>
<rect x="720" y="548" width="21" height="32" fill="#ece6f5" stroke="#d8d1c4" stroke-width="1.2"/>
<text x="730.5" y="570" font-size="15" text-anchor="middle" font-weight="700" font-family="ui-monospace, 'SF Mono', Menlo, monospace" fill="#1d1a24">1</text>
<rect x="741" y="548" width="21" height="32" fill="#ece6f5" stroke="#d8d1c4" stroke-width="1.2"/>
<text x="751.5" y="570" font-size="15" text-anchor="middle" font-weight="700" font-family="ui-monospace, 'SF Mono', Menlo, monospace" fill="#1d1a24">1</text>
<rect x="762" y="548" width="21" height="32" fill="#ece6f5" stroke="#d8d1c4" stroke-width="1.2"/>
<text x="772.5" y="570" font-size="15" text-anchor="middle" font-weight="700" font-family="ui-monospace, 'SF Mono', Menlo, monospace" fill="#1d1a24">1</text>
<rect x="783" y="548" width="21" height="32" fill="#ece6f5" stroke="#d8d1c4" stroke-width="1.2"/>
<text x="793.5" y="570" font-size="15" text-anchor="middle" font-weight="700" font-family="ui-monospace, 'SF Mono', Menlo, monospace" fill="#1d1a24">1</text>
<rect x="804" y="548" width="21" height="32" fill="#ece6f5" stroke="#d8d1c4" stroke-width="1.2"/>
<text x="814.5" y="570" font-size="15" text-anchor="middle" font-weight="700" font-family="ui-monospace, 'SF Mono', Menlo, monospace" fill="#1d1a24">1</text>
<rect x="825" y="548" width="21" height="32" fill="#ece6f5" stroke="#d8d1c4" stroke-width="1.2"/>
<text x="835.5" y="570" font-size="15" text-anchor="middle" font-weight="700" font-family="ui-monospace, 'SF Mono', Menlo, monospace" fill="#1d1a24">1</text>
<rect x="846" y="548" width="21" height="32" fill="#ece6f5" stroke="#d8d1c4" stroke-width="1.2"/>
<text x="856.5" y="570" font-size="15" text-anchor="middle" font-weight="700" font-family="ui-monospace, 'SF Mono', Menlo, monospace" fill="#1d1a24">1</text>
<text x="783" y="602" font-size="14" text-anchor="middle" font-family="ui-monospace, 'SF Mono', Menlo, monospace" fill="#6b6577">byte 3</text>
<text x="36" y="642" font-size="15" fill="#1d1a24">Bit 7 is input H, tied to GND, so a key module's byte always has bit 7 clear. E to A are SW5 to SW1.</text>
<text x="36" y="662.25" font-size="15" fill="#1d1a24">A byte with bit 7 set ends the chain. Behind the last key module, DATA reads +3.3V, so that byte is 0xFF.</text>
<text x="36" y="708" font-size="17" font-weight="700" fill="#6b3fa0">The sentinel's index is the key module count.</text>
</svg>
